<svg width="220" height="40" viewBox="0 0 220 40" fill="none" xmlns="http://www.w3.org/2000/svg">
<g clip-path="url(#clip0_6671_7657)">
<path d="M0 2.16992H10.6774V12.761H0V2.16992ZM12.2049 2.16992H13.7302V5.19594H16.7809V3.68293H18.3062V2.16992H19.8316V5.19594H18.3062V6.70894H15.2555V8.22195H13.7302V6.70894H12.2049V2.16992ZM15.2555 2.16992H16.7809V3.68293H15.2555V2.16992ZM21.3569 2.16992H22.8823V3.68293H21.3569V2.16992ZM27.4583 2.16992H38.1357V12.761H27.4583V2.16992ZM1.52534 3.68293V11.248H9.15207V3.68293H1.52534ZM24.4076 3.68293H25.933V14.274H27.4583V17.3H25.933V15.787H24.4076V6.70894H22.8823V5.19594H24.4076V3.68293ZM28.9836 3.68293V11.248H36.6104V3.68293H28.9836ZM3.05069 5.19594H7.62672V9.73496H3.05069V5.19594ZM19.8316 5.19594H21.3569V8.22195H18.3062V6.70894H19.8316V5.19594ZM30.509 5.19594H35.085V9.73496H30.509V5.19594ZM12.2049 8.22195H13.7302V9.73496H12.2049V8.22195ZM16.7809 8.22195H18.3062V9.73496H16.7809V8.22195ZM21.3569 8.22195H22.8823V14.274H18.3062V17.3H19.8316V15.787H24.4076V17.3H25.933V20.326H24.4076V21.839H27.4583V23.352H28.9836V24.865H27.4583V26.378H28.9836V24.865H30.509V26.378H32.0343V33.9431H28.9836V35.4561H27.4583V33.9431H25.933V35.4561H24.4076V36.9691H22.8823V35.4561H19.8316V33.9431H21.3569V32.4301H22.8823V30.9171H24.4076V27.891H22.8823V26.378H25.933V24.865H22.8823V23.352H19.8316V21.839H22.8823V17.3H21.3569V18.813H19.8316V21.839H16.7809V20.326H18.3062V18.813H16.7809V17.3H15.2555V21.839H13.7302V23.352H10.6795V21.839H6.10348V20.326H7.62882V18.813H4.57813V21.839H6.10348V23.352H4.57813V24.865H1.52534V27.891H0V20.326H3.05069V17.3H7.62672V15.787H4.57603V14.274H13.7281V15.787H12.2028V17.3H10.6774V15.787H9.15207V17.3H10.6774V18.813H9.15207V20.326H10.6774V18.813H13.7281V15.787H16.7788V14.274H15.2534V11.248H16.7788V12.761H18.3041V11.248H19.8295V12.761H21.3548V8.22195H21.3569ZM12.2049 11.25H13.7302V12.7631H12.2049V11.25ZM0 14.2761H1.52534V17.3021H0V14.2761ZM30.509 14.2761H32.0343V15.7891H33.5597V14.2761H38.1357V15.7891H36.6104V17.3021H33.5597V18.8151H36.6104V17.3021H38.1357V21.8411H36.6104V20.3281H32.0343V17.3021H30.509V20.3281H28.9836V18.8151H27.4583V17.3021H28.9836V15.7891H30.509V14.2761ZM27.4583 20.3281H28.9836V21.8411H27.4583V20.3281ZM15.2555 21.8411H16.7809V23.3541H19.8316V24.8671H18.3062V26.3801H16.7809V24.8671H15.2555V21.8411ZM30.509 21.8411H32.0343V23.3541H35.085V21.8411H36.6104V23.3541H38.1357V26.3801H36.6104V24.8671H35.085V26.3801H36.6104V29.4061H33.5597V26.3801H32.0343V24.8671H30.509V21.8411ZM9.15207 23.3541H10.6774V24.8671H9.15207V23.3541ZM13.7302 24.8671H15.2555V27.8931H13.7302V29.4061H16.7809V27.8931H19.8316V26.3801H21.3569V29.4061H18.3062V30.9191H16.7809V33.9452H15.2555V32.4321H13.7302V35.4582H12.2049V26.3801H13.7302V24.8671ZM7.62672 26.3801H10.6774V27.8931H7.62672V26.3801ZM25.933 27.8931V32.4321H30.509V27.8931H25.933ZM0 29.4061H10.6774V39.9972H0V29.4061ZM27.4583 29.4061H28.9836V30.9191H27.4583V29.4061ZM36.6125 29.4061H38.1378V30.9191H36.6125V29.4061ZM1.52534 30.9191V38.4842H9.15207V30.9191H1.52534ZM18.3062 30.9191H21.3569V32.4321H19.8316V33.9452H18.3062V30.9191ZM35.085 30.9191H36.6104V32.4321H38.1357V39.9972H36.6104V38.4842H33.5597V36.9712H32.0343V38.4842H28.9836V36.9712H30.509V35.4582H35.085V30.9191ZM3.05069 32.4321H7.62672V36.9712H3.05069V32.4321ZM13.7302 35.4602H16.7809V36.9733H13.7302V35.4602ZM18.3062 35.4602H19.8316V36.9733H18.3062V35.4602ZM25.933 35.4602H27.4583V36.9733H25.933V35.4602ZM21.3569 36.9733H22.8823V39.9993H18.3062V38.4863H21.3569V36.9733ZM12.2049 38.4863H15.2555V39.9993H12.2049V38.4863ZM24.4076 38.4863H27.4583V39.9993H24.4076V38.4863ZM32.0343 38.4863H33.5597V39.9993H32.0343V38.4863Z" fill="#231916"/>
<path d="M70.2013 39.385H77.4524L69.5026 17.2227H62.0962L54.1484 39.385H61.2632L65.728 23.8865L70.2013 39.385Z" fill="#231916"/>
<path d="M90.1399 39.3847C91.8457 39.3847 93.2808 39.2349 94.4558 38.9352C95.6265 38.6293 96.577 38.2422 97.3071 37.7552C98.0373 37.2744 98.7171 36.6126 99.3318 35.7843C99.9529 34.9519 100.482 33.8759 100.903 32.5731C101.331 31.2744 101.55 29.7968 101.55 28.1464C101.55 25.7011 101.075 23.6366 100.129 21.9362C99.1745 20.2359 97.8757 19.0309 96.2329 18.3067C94.5879 17.5928 92.6178 17.2266 90.3266 17.2266H80.2031V39.3847H90.1399ZM87.3326 22.7437H89.2356C90.5784 22.7437 91.5624 22.8894 92.2129 23.1683C92.6681 23.3556 93.0626 23.6865 93.3836 24.1298C93.7046 24.5793 93.9501 25.1579 94.1326 25.878C94.2984 26.5814 94.3886 27.341 94.3886 28.1381C94.3886 29.4409 94.2019 30.5273 93.8305 31.4055C93.4549 32.2796 92.9283 32.9061 92.2317 33.2994C91.5498 33.6761 90.5239 33.8738 89.1727 33.8738L87.3347 33.8842V22.7458L87.3326 22.7437Z" fill="#231916"/>
<path d="M123.33 23.6178H116.415C116.247 22.9664 115.938 22.4899 115.487 22.1652C115.028 21.8447 114.38 21.6803 113.532 21.6803C112.684 21.6803 112.08 21.8551 111.639 22.186C111.31 22.4503 111.144 22.7708 111.144 23.1891C111.144 23.5242 111.272 23.8197 111.514 24.0216C111.866 24.3317 112.682 24.648 113.981 24.9477L116.815 25.647C119.426 26.2734 121.276 27.1725 122.329 28.3317C123.383 29.4951 123.918 30.8353 123.918 32.365C123.918 33.5908 123.641 34.6917 123.097 35.6948C122.55 36.7042 121.882 37.4888 121.085 38.0695C120.29 38.6543 119.258 39.1184 117.99 39.4493C116.723 39.7947 115.397 39.9612 113.998 39.9612C112.462 39.9612 111.025 39.7656 109.678 39.3723C108.331 38.9685 107.219 38.4045 106.348 37.6553C105.473 36.9165 104.812 36.057 104.363 35.0809C104.044 34.3879 103.826 33.5284 103.702 32.5148H110.697C110.861 33.2183 111.22 33.7614 111.755 34.1381C112.292 34.5107 113.123 34.7021 114.247 34.7021C115.236 34.7021 115.936 34.5377 116.362 34.211C116.681 33.9675 116.839 33.622 116.839 33.187C116.839 32.7521 116.692 32.3796 116.404 32.1069C116.113 31.8322 115.317 31.5221 114.002 31.2162L111.472 30.5918C110.139 30.2817 108.891 29.8364 107.728 29.2724C106.566 28.7084 105.687 27.9904 105.087 27.11C104.506 26.2255 104.214 25.1454 104.214 23.8842C104.214 22.623 104.472 21.5408 105.001 20.5752C105.54 19.6137 106.249 18.827 107.143 18.2422C108.033 17.647 109.027 17.2245 110.131 16.9852C111.224 16.7479 112.359 16.623 113.517 16.623C114.915 16.623 116.176 16.7625 117.332 17.0414C118.486 17.3202 119.405 17.6824 120.086 18.1423C120.768 18.5918 121.331 19.1142 121.752 19.6948C122.191 20.2797 122.516 20.8749 122.766 21.4784C123.005 22.0882 123.196 22.802 123.332 23.6199" fill="#231916"/>
<path d="M127.627 39.385V17.2227H134.887V33.5931H144.899V39.385H127.627Z" fill="#231916"/>
<path d="M162.504 39.385H169.772L161.816 17.2227H154.407L146.464 39.385H153.585L158.041 23.8865L162.504 39.385Z" fill="#231916"/>
<path d="M172.856 39.385V17.2227H179.638L187.294 29.0853V17.2227H194.281V39.385H187.342L179.858 27.8075V39.385H172.856Z" fill="#231916"/>
<path d="M208.59 39.3847C210.292 39.3847 211.729 39.2349 212.898 38.9352C214.071 38.6293 215.015 38.2422 215.747 37.7552C216.479 37.2744 217.157 36.6126 217.776 35.7843C218.401 34.9519 218.926 33.8759 219.349 32.5731C219.78 31.2744 219.998 29.7968 219.998 28.1464C219.998 25.7011 219.522 23.6366 218.569 21.9362C217.619 20.2359 216.324 19.0309 214.679 18.3067C213.032 17.5928 211.058 17.2266 208.769 17.2266H198.651V39.3847H208.586M205.766 22.7437H207.673C209.018 22.7437 210.025 22.8894 210.653 23.1683C211.112 23.3556 211.509 23.6865 211.832 24.1298C212.155 24.5793 212.394 25.1579 212.573 25.878C212.738 26.5814 212.839 27.341 212.839 28.1381C212.839 29.4409 212.646 30.5273 212.277 31.4055C211.909 32.2796 211.366 32.9061 210.676 33.2994C209.996 33.6761 208.974 33.8738 207.623 33.8738L205.768 33.8842V22.7458L205.766 22.7437Z" fill="#231916"/>
<path d="M62.6146 4.47513C62.6146 6.73527 60.9654 8.10052 58.2378 8.10052H55.6445V11.2514H54.1465V0.847656H58.2378C60.9654 0.847656 62.6146 2.21498 62.6146 4.47513ZM61.1165 4.47513C61.1165 2.98918 60.1136 2.14006 58.1938 2.14006H55.6466V6.80811H58.1938C60.1115 6.80811 61.1165 5.96108 61.1165 4.47513Z" fill="#231916"/>
<path d="M69.4486 3.30078V4.68268C69.329 4.66811 69.2241 4.66811 69.1191 4.66811C67.5749 4.66811 66.6161 5.60463 66.6161 7.32784V11.2529H65.1768V3.37362H66.5552V4.69724C67.0651 3.77529 68.0533 3.30078 69.4486 3.30078Z" fill="#231916"/>
<path d="M71.6641 0.936524C71.6641 0.416233 72.0837 0 72.6376 0C73.1915 0 73.6111 0.401665 73.6111 0.907388C73.6111 1.44225 73.2062 1.85848 72.6376 1.85848C72.069 1.85848 71.6641 1.45682 71.6641 0.936524ZM71.92 3.37357H73.3594V11.2529H71.92V3.37357Z" fill="#231916"/>
<path d="M84.3433 6.71805V11.2508H82.904V6.88039C82.904 5.33408 82.1235 4.57654 80.7618 4.57654C79.2322 4.57654 78.244 5.48392 78.244 7.19256V11.2508H76.8047V3.37362H78.1832V4.56405C78.7685 3.76072 79.7861 3.30078 81.045 3.30078C82.9774 3.30078 84.3412 4.39964 84.3412 6.72014L84.3433 6.71805Z" fill="#231916"/>
<path d="M92.1775 10.7909C91.7432 11.1634 91.0823 11.3403 90.4382 11.3403C88.8352 11.3403 87.9204 10.4641 87.9204 8.87203V4.54529H86.5713V3.37151H87.9204V1.65039H89.3597V3.3736H91.6383V4.54737H89.3597V8.81376C89.3597 9.6608 89.8087 10.1374 90.6039 10.1374C91.0235 10.1374 91.4285 10.0042 91.7285 9.76694L92.1775 10.7929V10.7909Z" fill="#231916"/>
<path d="M108.031 4.47513C108.031 6.73527 106.381 8.10052 103.654 8.10052H101.061V11.2514H99.5625V0.847656H103.654C106.381 0.847656 108.031 2.21498 108.031 4.47513ZM106.533 4.47513C106.533 2.98918 105.528 2.14006 103.61 2.14006H101.063V6.80811H103.61C105.528 6.80811 106.533 5.96108 106.533 4.47513Z" fill="#231916"/>
<path d="M110.876 0.222656H112.315V11.2528H110.876V0.222656Z" fill="#231916"/>
<path d="M122.055 6.49537V11.2529H120.691V10.2123C120.213 10.9262 119.327 11.3424 118.083 11.3424C116.285 11.3424 115.146 10.3913 115.146 9.02399C115.146 7.76072 115.97 6.72014 118.337 6.72014H120.613V6.4371C120.613 5.2321 119.91 4.53491 118.486 4.53491C117.542 4.53491 116.583 4.86166 115.968 5.38195L115.368 4.31223C116.192 3.65874 117.376 3.30078 118.649 3.30078C120.823 3.30078 122.05 4.34136 122.05 6.49537H122.055ZM120.615 8.84501V7.74615H118.398C116.973 7.74615 116.57 8.29558 116.57 8.96363C116.57 9.75239 117.229 10.2415 118.324 10.2415C119.419 10.2415 120.257 9.75031 120.617 8.84501H120.615Z" fill="#231916"/>
<path d="M129.889 10.7909C129.455 11.1634 128.796 11.3403 128.15 11.3403C126.547 11.3403 125.632 10.4641 125.632 8.87203V4.54529H124.283V3.37151H125.632V1.65039H127.072V3.3736H129.35V4.54737H127.072V8.81376C127.072 9.6608 127.521 10.1374 128.316 10.1374C128.735 10.1374 129.14 10.0042 129.44 9.76694L129.889 10.7929V10.7909Z" fill="#231916"/>
<path d="M133.949 2.69057V3.37319H136.257V4.54697H133.979V11.2504H132.54V4.54697H131.19V3.37319H132.54V2.67392C132.54 1.14426 133.469 0.132812 135.162 0.132812C135.777 0.132812 136.377 0.280575 136.78 0.59275L136.346 1.67704C136.046 1.45435 135.655 1.30451 135.236 1.30451C134.382 1.30451 133.947 1.77901 133.947 2.6864L133.949 2.69057Z" fill="#231916"/>
<path d="M137.47 7.31327C137.47 4.96571 139.224 3.30078 141.605 3.30078C143.987 3.30078 145.726 4.96571 145.726 7.31327C145.726 9.66082 143.987 11.3424 141.605 11.3424C139.224 11.3424 137.47 9.6629 137.47 7.31327ZM144.274 7.31327C144.274 5.63377 143.135 4.54948 141.607 4.54948C140.08 4.54948 138.926 5.63377 138.926 7.31327C138.926 8.99277 140.08 10.0937 141.607 10.0937C143.135 10.0937 144.274 8.99277 144.274 7.31327Z" fill="#231916"/>
<path d="M152.694 3.30078V4.68268C152.574 4.66811 152.469 4.66811 152.364 4.66811C150.82 4.66811 149.861 5.60463 149.861 7.32784V11.2529H148.422V3.37362H149.8V4.69724C150.31 3.77529 151.298 3.30078 152.694 3.30078Z" fill="#231916"/>
<path d="M168.354 6.71818V11.251H166.915V6.88051C166.915 5.33421 166.166 4.57666 164.861 4.57666C163.421 4.57666 162.479 5.48405 162.479 7.19269V11.251H161.04V6.88051C161.04 5.33421 160.291 4.57666 158.986 4.57666C157.547 4.57666 156.602 5.48405 156.602 7.19269V11.251H155.163V3.37375H156.542V4.54753C157.11 3.7442 158.086 3.29883 159.284 3.29883C160.482 3.29883 161.516 3.77333 162.041 4.75564C162.641 3.86491 163.749 3.29883 165.098 3.29883C167.03 3.29883 168.35 4.39768 168.35 6.71818H168.354Z" fill="#231916"/>
</g>
<defs>
<clipPath id="clip0_6671_7657">
<rect width="220" height="40" fill="white"/>
</clipPath>
</defs>
</svg>
