<svg width="38" height="39" viewBox="0 0 38 39" fill="none" xmlns="http://www.w3.org/2000/svg">
<rect width="38" height="38" transform="translate(0 0.5)" fill="#242424"/>
<path d="M23 26.5H15C15 27.0304 14.7893 27.5391 14.4142 27.9142C14.0391 28.2893 13.5304 28.5 13 28.5C12.4696 28.5 11.9609 28.2893 11.5858 27.9142C11.2107 27.5391 11 27.0304 11 26.5V12.5C11 11.9696 11.2107 11.4609 11.5858 11.0858C11.9609 10.7107 12.4696 10.5 13 10.5H25C25.5304 10.5 26.0391 10.7107 26.4142 11.0858C26.7893 11.4609 27 11.9696 27 12.5V26.5C27 27.0304 26.7893 27.5391 26.4142 27.9142C26.0391 28.2893 25.5304 28.5 25 28.5C24.4696 28.5 23.9609 28.2893 23.5858 27.9142C23.2107 27.5391 23 27.0304 23 26.5ZM24 22.5C24.2652 22.5 24.5196 22.3946 24.7071 22.2071C24.8946 22.0196 25 21.7652 25 21.5C25 21.2348 24.8946 20.9804 24.7071 20.7929C24.5196 20.6054 24.2652 20.5 24 20.5C23.7348 20.5 23.4804 20.6054 23.2929 20.7929C23.1054 20.9804 23 21.2348 23 21.5C23 21.7652 23.1054 22.0196 23.2929 22.2071C23.4804 22.3946 23.7348 22.5 24 22.5ZM14 22.5C14.2652 22.5 14.5196 22.3946 14.7071 22.2071C14.8946 22.0196 15 21.7652 15 21.5C15 21.2348 14.8946 20.9804 14.7071 20.7929C14.5196 20.6054 14.2652 20.5 14 20.5C13.7348 20.5 13.4804 20.6054 13.2929 20.7929C13.1054 20.9804 13 21.2348 13 21.5C13 21.7652 13.1054 22.0196 13.2929 22.2071C13.4804 22.3946 13.7348 22.5 14 22.5ZM13 12.5V18.5H25V12.5H13Z" fill="white"/>
</svg>
