<svg width="211" height="50" viewBox="0 0 211 50" fill="none" xmlns="http://www.w3.org/2000/svg">
<g clip-path="url(#clip0_6671_7696)">
<path d="M188.607 29.6717C188.607 21.1729 184.015 18.1877 178.615 18.1877C175.399 18.1877 171.726 19.6836 170.118 22.7813V19.2203H157.83V48.8536H170.118V33.6895C170.118 30.7043 171.15 29.3275 172.99 29.0959C175.174 28.8642 176.663 30.0159 176.663 33.6895V48.8536H188.607V29.6717ZM99.6768 48.8536H112.197V35.9863H120.812V25.0715H112.197V19.2137H122.765V7.61719H105.54C101.98 7.61719 99.6834 9.91398 99.6834 13.2433V48.8536H99.6768ZM192.167 44.26C192.167 46.901 194.119 48.8536 197.104 48.8536H211V37.5947H204.336V30.3601H211V19.2203H204.336V11.8666H192.167V44.26ZM134.749 33.802C134.749 31.161 136.469 29.2084 139.109 29.2084C141.75 29.2084 143.47 31.161 143.47 33.802C143.47 36.443 141.75 38.3956 139.109 38.3956C136.469 38.3956 134.749 36.443 134.749 33.802ZM122.917 33.802C122.917 43.3334 129.461 49.9987 139.109 49.9987C148.757 49.9987 155.302 43.3334 155.302 33.802C155.302 24.2706 148.757 17.6053 139.109 17.6053C129.461 17.6053 122.917 24.2706 122.917 33.802Z" fill="black"/>
<path d="M87.395 33.3453L97.3872 19.2138H82.1144L78.5543 25.4158L74.8816 19.2138H59.7214L69.9451 33.3453L57.4251 48.1653V19.2138H43.8729V48.1587L31.3529 31.9289C36.9776 29.2879 40.3127 23.4632 40.3127 17.4862C40.3127 7.61064 33.9998 2.13672 22.3996 2.13672H0V48.8471H13.5523V34.5699H18.8329L27.6737 48.8471H73.6111L78.5476 40.9241L83.4842 48.8471H99.3327L87.3884 33.3387L87.395 33.3453ZM21.8173 23.3175H13.5457V13.4023H21.8173C24.4576 13.4023 26.0656 15.5402 26.0656 18.1812C26.0656 21.1664 24.1135 23.3175 21.8173 23.3175Z" fill="#ED1C24"/>
<path d="M50.96 16.0842C55.4004 16.0842 59 12.4836 59 8.0421C59 3.60057 55.4004 0 50.96 0C46.5196 0 42.9199 3.60057 42.9199 8.0421C42.9199 12.4836 46.5196 16.0842 50.96 16.0842Z" fill="#ED1C24"/>
</g>
<defs>
<clipPath id="clip0_6671_7696">
<rect width="211" height="50" fill="white"/>
</clipPath>
</defs>
</svg>
