<svg width="220" height="61" viewBox="0 0 220 61" fill="none" xmlns="http://www.w3.org/2000/svg">
<g clip-path="url(#clip0_6671_7682)">
<path d="M15.0283 2.2156H8.69923V22.3776H6.29399V2.2156H0V0H15.0283V2.2156Z" fill="#231F20"/>
<path d="M38.5453 22.3687H36.1401V11.8402H27.0019V22.3687H24.623V0H27.0019V9.62458H36.1401V0H38.5453V22.3687Z" fill="#231F20"/>
<path d="M60.8853 22.3687H49.4648V0H60.6395V2.2156H51.8437V9.57141H60.2709V11.787H51.8437V20.1709H60.8853V22.3865V22.3687Z" fill="#231F20"/>
<path d="M12.8342 54.609C12.8342 56.7892 12.167 58.4022 10.8239 59.4391C9.48966 60.476 7.69012 60.9988 5.42534 60.9988C4.56507 60.9988 3.67847 60.8925 2.77431 60.6887C1.87015 60.4848 1.11523 60.2721 0.518306 60.0683V57.4539C1.03622 57.7198 1.69459 57.9856 2.49341 58.2338C2.94988 58.3756 3.45023 58.5174 4.00326 58.6414C4.55629 58.7655 5.1181 58.8276 5.67113 58.8276C6.26805 58.8276 6.82985 58.7655 7.35655 58.6414C7.88324 58.5174 8.35727 58.3047 8.7874 58.0211C9.21753 57.7375 9.595 57.3387 9.91101 56.8335C10.227 56.3372 10.385 55.7346 10.385 55.0256C10.385 54.3166 10.2446 53.7317 9.9549 53.2531C9.66522 52.7745 9.32287 52.358 8.93663 52.0035C8.15537 51.3211 7.33021 50.745 6.46995 50.2931C5.85547 49.9563 5.18832 49.5929 4.45973 49.1852C3.73992 48.7776 3.07277 48.3079 2.44952 47.7673C1.80871 47.2444 1.29957 46.6506 0.904548 45.9771C0.509527 45.3035 0.316406 44.5325 0.316406 43.6551C0.316406 41.6611 0.913326 40.1988 2.10717 39.2771C3.301 38.3554 4.83719 37.8945 6.70696 37.8945C7.18098 37.8945 7.65501 37.9388 8.13781 38.0186C8.62061 38.0984 9.07708 38.1959 9.50721 38.3022C10.2885 38.4883 10.9556 38.6744 11.5174 38.8605V41.2268C11.1839 41.0407 10.5079 40.7837 9.48088 40.4469C8.45383 40.1101 7.44433 39.9506 6.45239 39.9506C5.399 39.9506 4.52118 40.2608 3.80136 40.8723C3.08155 41.4838 2.72164 42.3435 2.72164 43.4424C2.72164 43.9033 2.82698 44.3109 3.04644 44.6743C3.26589 45.0376 3.52046 45.3744 3.83648 45.6846C4.15249 45.9948 4.50362 46.2784 4.89864 46.5442C5.29366 46.8101 5.70624 47.0671 6.11882 47.3419C7.576 48.1129 8.67328 48.7333 9.3931 49.2118C10.1129 49.6904 10.7098 50.1424 11.1839 50.5855C11.6754 51.0464 12.0617 51.587 12.3426 52.2251C12.6235 52.8632 12.7815 53.6608 12.8166 54.6356L12.8342 54.609Z" fill="#231F20"/>
<path d="M34.0416 60.6539H22.6211V38.2852H33.7958V40.5008H25V47.8566H33.4271V50.0722H25V58.456H34.0416V60.6716V60.6539Z" fill="#231F20"/>
<path d="M61.4124 49.4433C61.4124 51.0385 61.2017 52.5717 60.7804 54.0252C60.359 55.4786 59.7358 56.7459 58.9106 57.8272C58.1118 58.8641 57.1286 59.6528 55.9787 60.1934C54.8287 60.734 53.6437 60.9999 52.4323 60.9999C51.2209 60.9999 50.0095 60.734 48.8683 60.1934C47.7271 59.6528 46.7528 58.8641 45.9539 57.8272C45.1288 56.7459 44.5055 55.4786 44.0842 54.0252C43.6628 52.5717 43.4521 51.0474 43.4521 49.4433C43.4521 47.8392 43.6628 46.3415 44.0842 44.8614C44.5055 43.3903 45.1288 42.123 45.9539 41.0595C46.7528 40.0226 47.7271 39.2338 48.8683 38.6932C50.0095 38.1526 51.1945 37.8867 52.4323 37.8867C53.67 37.8867 54.8287 38.1526 55.9787 38.6932C57.1286 39.2338 58.1118 40.0226 58.9106 41.0595C59.7358 42.123 60.359 43.3814 60.7804 44.8614C61.2017 46.3326 61.4124 47.8658 61.4124 49.4433ZM58.9721 49.4433C58.9721 48.1583 58.8141 46.8998 58.498 45.6856C58.182 44.4715 57.7256 43.4257 57.1286 42.5572C56.5493 41.7064 55.847 41.0595 55.0131 40.6075C54.1791 40.1555 53.3189 39.9339 52.4323 39.9339C51.5457 39.9339 50.6854 40.1555 49.8515 40.6075C49.0175 41.0595 48.3065 41.7064 47.7096 42.5572C47.1302 43.4257 46.6825 44.4715 46.3665 45.6856C46.0505 46.8998 45.8925 48.1494 45.8925 49.4433C45.8925 50.7372 46.0505 52.0045 46.3665 53.2098C46.6825 54.4151 47.1302 55.452 47.7096 56.3294C48.3065 57.1625 49.0175 57.8006 49.8515 58.2614C50.6854 58.7223 51.5457 58.9438 52.4323 58.9438C53.3189 58.9438 54.1791 58.7134 55.0131 58.2614C55.847 57.8094 56.5493 57.1625 57.1286 56.3294C57.7256 55.4609 58.182 54.4151 58.498 53.2098C58.8141 52.0045 58.9721 50.7461 58.9721 49.4433Z" fill="#231F20"/>
<path d="M78.6269 58.7839C79.4872 58.8282 80.2509 58.651 80.9093 58.2699C81.5676 57.8888 82.0592 57.3837 82.3928 56.7544C82.7439 56.0897 82.9985 55.3719 83.1653 54.592C83.3321 53.8121 83.4111 53.0056 83.4111 52.1814V38.2852H85.8163V52.3055C85.8163 53.236 85.7197 54.2198 85.5354 55.2478C85.3511 56.2759 84.9999 57.2153 84.482 58.0661C83.9465 58.9169 83.2092 59.617 82.2611 60.1665C81.3131 60.7159 80.1017 60.9907 78.6181 60.9907C77.1346 60.9907 75.9232 60.7159 74.9752 60.1665C74.0271 59.617 73.2985 58.9169 72.7806 58.0661C72.2452 57.2153 71.894 56.2759 71.7272 55.2478C71.5604 54.2198 71.4814 53.236 71.4814 52.3055V38.2852H73.8603V52.1814C73.8603 53.0145 73.9394 53.821 74.0886 54.592C74.2378 55.363 74.4924 56.0897 74.8435 56.7544C75.1946 57.3748 75.6862 57.8711 76.327 58.2344C76.9678 58.5978 77.7228 58.7839 78.6094 58.7839H78.6269Z" fill="#231F20"/>
<path d="M108.166 60.6539H96.7188V38.2852H99.0976V58.4471H108.174V60.6627L108.166 60.6539Z" fill="#231F20"/>
<path d="M120.016 60.6539H117.61V38.2852H120.016V60.6539Z" fill="#231F20"/>
<path d="M144.735 40.5008H138.406V60.6627H136.001V40.5008H129.707V38.2852H144.735V40.5008Z" fill="#231F20"/>
<path d="M165.751 60.6539H154.33V38.2852H165.505V40.5008H156.709V47.8566H165.136V50.0722H156.709V58.456H165.751V60.6716V60.6539Z" fill="#231F20"/>
<path d="M183.185 58.7839C184.045 58.8282 184.809 58.651 185.467 58.2699C186.125 57.8888 186.617 57.3837 186.95 56.7544C187.302 56.0897 187.556 55.3719 187.723 54.592C187.89 53.8121 187.969 53.0056 187.969 52.1814V38.2852H190.374V52.3055C190.374 53.236 190.277 54.2198 190.093 55.2478C189.909 56.2759 189.558 57.2153 189.04 58.0661C188.504 58.9169 187.767 59.617 186.819 60.1665C185.871 60.7159 184.659 60.9907 183.176 60.9907C181.692 60.9907 180.481 60.7159 179.533 60.1665C178.585 59.617 177.856 58.9169 177.338 58.0661C176.803 57.2153 176.452 56.2759 176.285 55.2478C176.118 54.2198 176.039 53.236 176.039 52.3055V38.2852H178.418V52.1814C178.418 53.0145 178.497 53.821 178.646 54.592C178.795 55.363 179.05 56.0897 179.401 56.7544C179.752 57.3748 180.244 57.8711 180.885 58.2344C181.525 58.5978 182.28 58.7839 183.167 58.7839H183.185Z" fill="#231F20"/>
<path d="M220 60.6539H217.779V41.2718L211.608 60.6539H209.633L203.462 41.2718V60.6539H201.268V38.2852H204.542L210.652 57.1621L216.673 38.2852H220.009V60.6539H220Z" fill="#231F20"/>
</g>
<defs>
<clipPath id="clip0_6671_7682">
<rect width="220" height="61" fill="white"/>
</clipPath>
</defs>
</svg>
