<svg width="419" height="122" viewBox="0 0 419 122" fill="none" xmlns="http://www.w3.org/2000/svg">
<path d="M41.52 26.1L30 27.48C29.1 21.72 26.34 17.94 21.72 17.94C16.44 17.94 14.16 23.88 14.16 31.98C14.16 40.14 16.26 46.26 21.72 46.26C26.52 46.26 29.1 43.14 30 37.14L40.92 39.72C39.96 49.62 32.52 56.7 21.72 56.7C8.88 56.7 1.86 46.8 1.86 32.1C1.86 17.88 8.7 7.5 21.72 7.5C32.88 7.5 41.04 14.58 41.52 26.1ZM75.525 51.6C72.465 54.78 68.085 56.7 62.565 56.7C51.585 56.7 44.805 48.96 44.805 39C44.805 29.16 51.585 20.82 62.565 20.82C73.545 20.82 80.325 29.16 80.325 39C80.325 43.98 78.645 48.42 75.525 51.6ZM62.565 47.34C66.345 47.34 68.325 44.94 68.325 39C68.325 33.96 66.165 30.18 62.565 30.18C58.965 30.18 56.805 33.96 56.805 39C56.805 44.94 58.785 47.34 62.565 47.34ZM136.931 55.5H126.131V36.24C126.131 32.7 124.391 30.72 121.451 30.72C118.631 30.72 116.171 32.52 116.171 36.18V55.5H105.431V36.24C105.431 32.7 103.631 30.72 100.691 30.72C97.3313 30.72 95.1713 32.4 95.1713 36.18V55.5H84.3713V21.96H94.3913V26.7C95.5313 23.82 98.5313 21.36 101.711 20.88C108.611 19.92 113.291 22.62 115.211 26.88V26.7C116.231 23.82 119.171 21.36 122.471 20.88C131.651 19.62 136.931 24.9 136.931 32.88V55.5ZM154.463 13.2C154.463 16.86 151.763 19.56 147.923 19.56C144.083 19.56 141.443 16.86 141.443 13.2C141.443 9.42 144.083 6.72 147.923 6.72C151.763 6.72 154.463 9.42 154.463 13.2ZM153.743 55.5H142.103V21.96H153.743V55.5ZM192.617 55.5H181.037V36.24C181.037 32.7 179.177 30.72 176.237 30.72C172.877 30.72 170.957 32.28 170.957 36.18V55.5H159.377V21.96H170.297V26.7C171.317 23.88 174.077 21.36 178.157 20.88C187.337 19.92 192.617 24.96 192.617 32.88V55.5ZM213.843 43.62H212.643C211.143 43.62 210.003 43.56 209.043 43.62C208.143 43.68 207.903 43.92 207.723 44.58C207.543 45.24 208.083 45.66 208.803 45.84C210.423 46.14 216.723 46.5 218.463 46.5C229.683 46.98 233.163 50.64 232.863 56.76C232.383 64.5 224.883 67.8 213.843 67.8C199.923 67.8 195.543 64.08 195.543 59.1C195.543 55.86 198.663 52.86 202.263 52.38C198.483 51.84 197.403 49.56 197.703 47.4C198.123 44.34 200.283 42.3 202.623 41.4C199.083 39.42 197.343 36.48 197.343 32.46C197.343 25.5 203.283 20.82 213.423 20.82C214.803 20.82 216.003 20.88 217.143 21.06C217.563 19.14 218.763 17.4 220.263 16.44C223.323 14.46 227.703 14.04 232.083 15.24L230.703 23.34C228.543 21.96 225.903 21.72 224.043 22.86C223.863 22.92 223.803 23.04 223.743 23.1C227.403 25.2 229.443 28.38 229.443 32.46C229.443 39.48 223.743 43.62 213.843 43.62ZM213.423 36.54C216.123 36.54 217.383 34.92 217.383 32.46C217.383 29.64 216.003 27.9 213.423 27.9C210.783 27.9 209.343 29.64 209.343 32.46C209.343 34.92 210.603 36.54 213.423 36.54ZM216.003 55.62C214.803 55.62 209.643 55.14 208.143 55.14C206.403 55.08 205.323 55.14 204.903 56.4C204.423 58.2 205.803 59.82 212.343 60.12C215.943 60.24 218.943 60.12 220.263 59.16C220.743 58.86 220.983 58.44 221.043 57.9C221.223 56.4 220.503 55.92 216.003 55.62ZM280.019 30.96L271.439 33.12C270.719 30.18 268.019 28.44 264.599 28.44C260.819 28.44 259.619 29.28 259.619 30.66C259.619 32.04 261.359 32.52 265.199 33.3C274.679 35.4 280.859 38.1 280.859 45.3C280.859 53.1 274.499 56.7 265.379 56.7C254.819 56.7 250.139 52.74 248.219 46.26L257.879 43.68C258.659 46.56 262.199 48.78 265.619 48.78C268.679 48.78 270.239 48.06 270.239 46.56C270.239 44.88 268.259 44.1 265.199 43.44C254.159 41.04 249.299 38.64 249.299 31.68C249.299 25.62 254.459 20.82 265.079 20.82C273.539 20.82 279.359 25.62 280.019 30.96ZM314.939 51.6C311.879 54.78 307.499 56.7 301.979 56.7C290.999 56.7 284.219 48.96 284.219 39C284.219 29.16 290.999 20.82 301.979 20.82C312.959 20.82 319.739 29.16 319.739 39C319.739 43.98 318.059 48.42 314.939 51.6ZM301.979 47.34C305.759 47.34 307.739 44.94 307.739 39C307.739 33.96 305.579 30.18 301.979 30.18C298.379 30.18 296.219 33.96 296.219 39C296.219 44.94 298.199 47.34 301.979 47.34ZM353.845 51.6C350.785 54.78 346.405 56.7 340.885 56.7C329.905 56.7 323.125 48.96 323.125 39C323.125 29.16 329.905 20.82 340.885 20.82C351.865 20.82 358.645 29.16 358.645 39C358.645 43.98 356.965 48.42 353.845 51.6ZM340.885 47.34C344.665 47.34 346.645 44.94 346.645 39C346.645 33.96 344.485 30.18 340.885 30.18C337.285 30.18 335.125 33.96 335.125 39C335.125 44.94 337.105 47.34 340.885 47.34ZM396.172 55.5H384.592V36.24C384.592 32.7 382.732 30.72 379.792 30.72C376.432 30.72 374.512 32.28 374.512 36.18V55.5H362.932V21.96H373.852V26.7C374.872 23.88 377.632 21.36 381.712 20.88C390.892 19.92 396.172 24.96 396.172 32.88V55.5ZM413.918 42.06H403.418L402.518 8.64H414.818L413.918 42.06ZM415.178 52.32C415.178 55.98 412.478 58.68 408.638 58.68C404.798 58.68 402.158 55.98 402.158 52.32C402.158 48.54 404.798 45.84 408.638 45.84C412.478 45.84 415.178 48.54 415.178 52.32Z" fill="#242424"/>
<path d="M127.541 88.6602V107.609H124.068V102.906H120.705V100.145H124.068V97.6562H120.705V94.8398H124.068V88.6602H127.541ZM120.459 91.2578V94.0195H106.623V91.2578H111.982V88.6055H115.455V91.2578H120.459ZM113.678 94.8945C117.096 94.8945 119.557 96.918 119.584 99.7891C119.557 102.66 117.096 104.656 113.678 104.656C110.287 104.656 107.826 102.66 107.853 99.7891C107.826 96.918 110.287 94.8945 113.678 94.8945ZM113.678 97.6016C112.146 97.6289 111.08 98.3945 111.107 99.7891C111.08 101.211 112.146 102.004 113.678 102.004C115.182 102.004 116.275 101.211 116.303 99.7891C116.275 98.3945 115.182 97.6289 113.678 97.6016ZM128.06 110.289V113.078H110.971V105.996H114.498V110.289H128.06ZM151.918 88.6328V113.516H148.583V101.047H146.477V112.367H143.168V105.23L141.2 107.855C138.889 106.639 137.399 104.574 136.524 102.004C135.69 104.957 134.213 107.35 131.848 108.758L129.688 106.078C133.461 103.945 134.747 99.543 134.747 94.7852V93.9922H130.536V91.2031H141.938V93.9922H138.137V94.7852C138.137 99.1191 139.422 103.248 143.168 105.176V88.9883H146.477V98.2031H148.583V88.6328H151.918ZM180.384 89.6992V92.4336H173.521C173.931 94.4844 176.502 96.5625 181.423 97.1094L180.138 99.8438C175.476 99.3242 172.359 97.3828 171.06 94.8125C169.748 97.3691 166.658 99.3242 162.009 99.8438L160.752 97.1094C165.673 96.5625 168.216 94.457 168.627 92.4336H161.818V89.6992H180.384ZM182.49 101.02V103.809H173.111V108.102H169.666V103.809H159.712V101.02H182.49ZM179.974 110.289V113.078H162.392V105.887H165.865V110.289H179.974ZM204.215 88.6328V113.57H200.688V88.6328H204.215ZM188.11 90.6016V96.6719H193.469V90.6016H196.914V107.746H184.61V90.6016H188.11ZM188.11 104.93H193.469V99.3789H188.11V104.93ZM235.607 99.9258V102.742H225.982V104.574C230.316 104.902 232.872 106.461 232.9 109.031C232.872 111.902 229.618 113.516 224.232 113.516C218.763 113.516 215.509 111.902 215.509 109.031C215.509 106.447 218.093 104.889 222.509 104.574V102.742H212.911V99.9258H235.607ZM224.232 107.145C220.786 107.172 219.036 107.773 219.064 109.031C219.036 110.234 220.786 110.891 224.232 110.891C227.595 110.891 229.372 110.234 229.4 109.031C229.372 107.773 227.595 107.172 224.232 107.145ZM233.556 89.6992V92.4336H226.802C227.39 94.1836 229.919 95.8652 234.65 96.2617L233.419 98.9961C228.73 98.5449 225.558 96.7676 224.232 94.3477C222.919 96.7676 219.802 98.5449 215.072 98.9961L213.923 96.2617C218.531 95.8652 221.074 94.1699 221.716 92.4336H214.99V89.6992H233.556ZM257.387 88.6328V113.57H253.859V88.6328H257.387ZM243.879 90.3828C247.625 90.3828 250.414 93.8281 250.414 99.2422C250.414 104.711 247.625 108.129 243.879 108.129C240.051 108.129 237.262 104.711 237.289 99.2422C237.262 93.8281 240.051 90.3828 243.879 90.3828ZM243.879 93.5273C241.937 93.5273 240.652 95.5508 240.652 99.2422C240.652 102.961 241.937 104.957 243.879 104.957C245.765 104.957 247.051 102.961 247.051 99.2422C247.051 95.5508 245.765 93.5273 243.879 93.5273ZM281.764 88.6328V113.516H278.428V88.6328H281.764ZM276.569 88.9883V112.367H273.288V100.609H271.291C270.963 105.504 268.885 108.457 265.823 108.457C262.541 108.457 260.409 105.012 260.409 99.4062C260.409 93.8281 262.541 90.4102 265.823 90.4102C268.817 90.4102 270.868 93.1992 271.264 97.8477H273.288V88.9883H276.569ZM265.823 93.6914C264.428 93.6914 263.608 95.6055 263.635 99.4062C263.608 103.234 264.428 105.121 265.823 105.094C267.245 105.121 268.092 103.234 268.092 99.4062C268.092 95.6055 267.245 93.6914 265.823 93.6914ZM306.606 107.746V110.617H283.829V107.746H288.915V101.648C286.987 100.5 285.825 98.7363 285.825 96.5352C285.825 92.5156 289.763 89.8359 295.177 89.8359C300.563 89.8359 304.528 92.5156 304.556 96.5352C304.542 98.6816 303.407 100.432 301.548 101.594V107.746H306.606ZM295.177 92.5977C291.622 92.5977 289.27 94.0195 289.27 96.5352C289.27 98.9688 291.622 100.473 295.177 100.473C298.704 100.473 301.083 98.9688 301.11 96.5352C301.083 94.0195 298.704 92.5977 295.177 92.5977ZM292.36 107.746H298.02V102.906C297.132 103.084 296.175 103.18 295.177 103.18C294.179 103.18 293.235 103.098 292.36 102.906V107.746ZM310.695 111.246C309.41 111.246 308.371 110.207 308.398 108.949C308.371 107.691 309.41 106.68 310.695 106.68C311.898 106.68 312.964 107.691 312.964 108.949C312.964 110.207 311.898 111.246 310.695 111.246Z" fill="#555555"/>
</svg>
