<svg width="217" height="41" viewBox="0 0 217 41" fill="none" xmlns="http://www.w3.org/2000/svg">
<g clip-path="url(#clip0_6671_7700)">
<path d="M18.2802 2.52734L14.5926 10.06C13.6106 12.0984 12.9513 14.7233 12.9101 14.9328C12.8277 14.5977 12.299 12.1473 11.3101 10.1018L7.58127 2.52734H0L9.51092 19.4286V30.2982H16.3093V19.4286L25.7791 2.52734H18.2802Z" fill="#1D201A"/>
<path d="M33.656 9.77261C26.8919 9.77261 22.957 13.8565 22.957 20.5933C22.957 27.3301 26.8507 31.0859 33.3675 31.0859C39.8844 31.0859 43.9429 27.0927 43.9429 20.4258C43.9429 13.7588 40.1728 9.76562 33.656 9.76562V9.77261ZM33.4499 26.9671C30.7855 26.9671 29.5151 24.7191 29.5151 20.4746C29.5151 16.2301 30.7855 13.9403 33.4499 13.9403C36.1144 13.9403 37.426 16.2301 37.426 20.5165C37.426 24.8029 36.1144 26.9671 33.4499 26.9671Z" fill="#1D201A"/>
<path d="M57.3405 9.77261C50.5764 9.77261 46.6416 13.8565 46.6416 20.5933C46.6416 27.3301 50.5352 31.0859 57.0521 31.0859C63.569 31.0859 67.6206 27.0927 67.6206 20.4258C67.6206 13.7588 63.8505 9.76562 57.3337 9.76562L57.3405 9.77261ZM57.1345 26.9671C54.4701 26.9671 53.1997 24.7191 53.1997 20.4746C53.1997 16.2301 54.4701 13.9403 57.1345 13.9403C59.7989 13.9403 61.1106 16.2301 61.1106 20.5165C61.1106 24.8029 59.7989 26.9671 57.1345 26.9671Z" fill="#1D201A"/>
<path d="M83.9021 10.0234C80.6265 10.0234 78.4908 11.9363 77.7148 13.6885L77.5912 10.568H71.6924V30.3035H78.0444V18.317C78.0444 15.9853 79.0264 14.3657 81.2788 14.3657C83.2909 14.3657 84.1905 15.5315 84.1905 17.8632V30.3105H90.5425V17.3187C90.5425 12.4878 87.9193 10.0374 83.9021 10.0374V10.0234Z" fill="#1D201A"/>
<path d="M108.747 10.0249C108.747 11.2326 108.871 12.3565 108.946 13.1035C108.418 11.9796 106.323 9.77354 103.047 9.77354C97.8834 9.77354 94.5254 14.1856 94.5254 20.685C94.5254 27.1844 97.7667 30.8425 102.725 30.8425C105.719 30.8425 107.806 29.5091 108.994 27.3869L109.159 30.298H115.017V0H108.747V10.0249ZM104.895 26.968C102.436 26.968 101.001 24.5106 101.001 20.5593C101.001 16.608 102.436 14.025 104.936 14.025C107.436 14.025 108.83 16.2729 108.83 20.3918C108.83 24.5106 107.477 26.968 104.895 26.968Z" fill="#1D201A"/>
<path d="M129.321 9.77344C122.928 9.77344 119.075 13.8574 119.075 20.5941C119.075 27.3309 122.804 31.0867 129.28 31.0867C134.155 31.0867 137.884 28.9645 138.866 24.343H132.432C131.937 26.0464 131.161 26.8422 129.314 26.8422C125.997 26.8422 125.585 23.8054 125.585 21.39H139.189C139.189 20.9292 139.23 20.6011 139.23 20.3498C139.23 13.6898 135.295 9.77344 129.307 9.77344H129.321ZM125.757 18.06C126.087 14.8976 127.192 13.5223 129.287 13.5223C131.381 13.5223 132.48 14.9325 132.603 18.06H125.757Z" fill="#1D201A"/>
<path d="M154.489 19.101L152.065 18.2284C149.242 17.2301 148.665 16.525 148.665 15.2335C148.665 14.1095 149.524 13.4393 150.883 13.4393C152.394 13.4393 153.259 14.3958 153.383 16.3574H159.371C159.083 13.8582 158.018 9.78125 150.925 9.78125C145.967 9.78125 142.691 12.1967 142.691 15.9037C142.691 18.6961 144.202 20.2738 147.69 21.5653L150.643 22.6474C152.813 23.4782 153.431 24.1484 153.431 25.3142C153.431 26.3963 152.696 27.3108 150.932 27.3108C148.803 27.3108 148.349 25.8099 148.143 24.0646H141.915C142.368 28.7698 145.156 31.1015 150.849 31.1015C156.013 31.1015 159.454 28.7698 159.454 24.8604C159.454 22.1518 158.101 20.4065 154.496 19.115L154.489 19.101Z" fill="#1D201A"/>
<path d="M183.022 9.81445C182.321 9.81445 181.215 9.85634 180.316 10.0239C177.04 10.6452 173.799 12.5999 173.799 17.1865C173.799 20.3908 175.358 22.4293 177.693 23.4695C177.445 23.5951 175.069 24.8029 175.069 26.7576C175.069 29.3825 178.057 30.0457 178.187 30.0876C177.94 30.1295 173.105 30.9602 173.105 35.0441C173.105 39.7075 178.881 40.999 183.475 40.999C188.433 40.999 194.586 39.17 194.586 33.9621C194.586 28.7542 189.95 27.5883 185.281 27.0508L182.781 26.7576C180.522 26.5063 179.952 26.1363 179.952 25.3474C179.952 24.761 180.24 24.4748 180.522 24.3072C181.339 24.4329 182.287 24.4748 183.104 24.4748C187.327 24.4748 192.203 22.6457 192.203 17.6472C192.203 15.2318 191.015 14.1916 191.015 14.1916C191.015 14.1916 191.832 14.4429 193.439 14.4429H194.95V10.5754H187.245C186.016 10.0728 184.333 9.82841 183.022 9.82841V9.81445ZM181.463 31.2115L184.21 31.5885C187.403 32.0074 188.591 32.7125 188.591 34.2972C188.591 36.2519 186.297 37.1315 183.674 37.1315C181.051 37.1315 178.881 36.217 178.881 34.0109C178.881 31.8049 181.463 31.2185 181.463 31.2185V31.2115ZM183.022 20.8446C181.463 20.8446 180.192 19.8882 180.192 17.1795C180.192 14.4708 181.422 13.3469 183.022 13.3469C184.704 13.3469 185.974 14.4708 185.974 17.1795C185.974 19.8882 184.663 20.8446 183.022 20.8446Z" fill="#1D201A"/>
<path d="M210.359 10.0234C207.083 10.0234 204.948 11.9363 204.172 13.6885L204.048 10.568H198.149V30.3035H204.501V18.317C204.501 15.9853 205.483 14.3657 207.736 14.3657C209.748 14.3657 210.648 15.5315 210.648 17.8632V30.3105H217V17.3187C217 12.4878 214.376 10.0374 210.359 10.0374V10.0234Z" fill="#1D201A"/>
<path d="M166.321 0C164.226 0 162.537 1.72433 162.537 3.84659C162.537 5.96884 164.233 7.69317 166.321 7.69317C168.408 7.69317 170.105 5.96884 170.105 3.84659C170.105 1.72433 168.408 0 166.321 0Z" fill="#1D201A"/>
<path d="M169.494 10.5625H163.142V30.2981H169.494V10.5625Z" fill="#1D201A"/>
</g>
<defs>
<clipPath id="clip0_6671_7700">
<rect width="217" height="41" fill="white"/>
</clipPath>
</defs>
</svg>
