<svg width="575" height="130" viewBox="0 0 575 130" fill="none" xmlns="http://www.w3.org/2000/svg">
<rect x="21.0249" y="0.858887" width="536" height="108" transform="rotate(2 21.0249 0.858887)" fill="#DDFF8E"/>
<path d="M7.0752 14.5991L7.07519 115.174" stroke="#242424" stroke-width="14"/>
<path d="M30.7002 122.599L543.7 122.599" stroke="#242424" stroke-width="14"/>
<path d="M30.7002 7.84912L543.7 7.84909" stroke="#242424" stroke-width="14"/>
<path d="M568 14.5991L568 115.174" stroke="#242424" stroke-width="14"/>
<path d="M194.021 45.987C192.845 47.779 189.513 48.871 183.353 48.871C175.065 48.871 172.097 46.911 172.097 43.999C172.097 41.171 175.625 39.099 183.353 39.099C191.641 39.099 194.609 41.115 194.609 43.999C194.609 44.727 194.413 45.399 194.021 45.987ZM195.729 53.379H191.109V55.367C193.685 56.179 194.609 57.523 194.609 59.231C194.609 62.059 191.921 63.935 183.353 63.935C174.785 63.935 172.097 62.115 172.097 59.231C172.097 57.523 173.021 56.179 175.597 55.367V53.379H170.977V49.487H195.729V53.379ZM188.673 44.391C188.841 44.251 188.925 44.139 188.925 43.999C188.925 43.467 187.889 42.963 183.353 42.963C178.817 42.963 177.781 43.495 177.781 43.999C177.781 44.531 178.817 45.035 183.353 45.035C186.741 45.035 188.197 44.755 188.673 44.391ZM185.789 54.555V53.379H180.917V54.555C181.673 54.527 182.485 54.499 183.353 54.499C184.221 54.499 185.033 54.527 185.789 54.555ZM188.673 59.595C188.841 59.483 188.925 59.371 188.925 59.231C188.925 58.699 187.889 58.223 183.353 58.223C178.817 58.223 177.781 58.699 177.781 59.231C177.781 59.763 178.817 60.211 183.353 60.211C186.741 60.211 188.197 59.931 188.673 59.595ZM220.206 53.127H214.466V39.099H220.206V43.859H222.614V48.899H220.206V53.127ZM213.402 44.223H197.106V40.443H202.258V38.539H208.25V40.443H213.402V44.223ZM212.338 50.803C211.274 52.343 208.754 53.211 205.282 53.211C200.578 53.211 197.638 51.727 197.638 48.927C197.638 46.155 200.578 44.671 205.282 44.671C209.902 44.671 212.87 46.155 212.87 48.955C212.87 49.655 212.702 50.271 212.338 50.803ZM220.206 63.599H199.29V53.855H204.974V55.395H214.466V53.855H220.206V63.599ZM207.606 48.955C207.606 48.395 206.654 48.171 205.282 48.171C203.854 48.171 202.902 48.395 202.902 48.927C202.902 49.515 203.854 49.711 205.282 49.711C205.982 49.711 206.542 49.655 206.962 49.543C207.382 49.431 207.606 49.235 207.606 48.955ZM214.466 60.015V58.727H204.974V60.015H214.466ZM246.896 63.599H241.212V39.071H246.896V63.599ZM239.308 54.219L239.952 59.007C235.92 60.043 229.088 60.715 223.908 60.491V39.883H238.188V44.811H229.592V55.395C232.644 55.395 236.564 54.947 239.308 54.219ZM272.381 63.599H266.697V39.071H272.381V47.415H274.845V52.483H272.381V63.599ZM266.669 57.103L263.169 61.135C260.705 59.595 258.605 57.439 257.401 55.115C256.365 57.579 253.957 60.071 251.353 61.555L247.741 57.803C252.137 55.339 254.517 51.531 254.517 45.791V44.419H249.253V39.883H265.577V44.419H260.313V45.791C260.313 51.475 262.889 54.807 266.669 57.103ZM298.987 56.235H293.303V39.071H298.987V56.235ZM291.063 48.871C289.943 51.391 287.255 52.987 283.643 52.987C278.855 52.987 275.663 50.159 275.663 46.043C275.663 42.011 278.855 39.099 283.643 39.099C288.459 39.099 291.651 41.983 291.651 46.071C291.651 47.079 291.455 48.003 291.063 48.871ZM299.155 63.487H277.931V54.275H283.615V58.699H299.155V63.487ZM286.079 46.071C286.079 44.727 285.127 43.607 283.643 43.607C282.187 43.607 281.235 44.727 281.235 46.043C281.235 47.359 282.187 48.451 283.643 48.451C285.127 48.451 286.079 47.387 286.079 46.071ZM325.704 50.887L322.708 55.003C319.096 53.631 316.044 51.755 313.58 48.591C311.2 51.867 307.98 53.771 304.452 55.255L301.456 51.083C305.572 49.431 310.584 45.819 310.584 41.395V39.379H316.576V41.395C316.576 45.791 321.588 49.235 325.704 50.887ZM325.956 62.003H301.204V57.215H325.956V62.003ZM350.238 52.847H329.07V39.351H350.042V43.299H334.614V44.307H349.79V47.835H334.614V48.871H350.238V52.847ZM347.186 63.599H341.866V57.999H337.722C337.47 60.099 337.022 62.031 336.574 63.627L331.002 63.095C331.422 61.527 331.814 59.875 332.066 57.999H327.25V53.883H352.002V57.999H347.186V63.599ZM377.123 63.599H371.439V39.071H377.123V63.599ZM369.535 54.219L370.179 59.007C366.147 60.043 359.315 60.715 354.135 60.491V39.883H368.415V44.811H359.819V55.395C362.871 55.395 366.791 54.947 369.535 54.219ZM404.093 62.115H379.341V57.327H388.777V54.555C383.485 53.799 380.769 50.775 380.769 46.967C380.769 42.487 384.437 39.183 391.689 39.183C398.857 39.183 402.609 42.487 402.609 46.967C402.609 50.775 399.893 53.799 394.629 54.555V57.327H404.093V62.115ZM395.609 49.375C396.477 48.787 396.925 48.003 396.925 46.967C396.925 44.923 395.189 43.691 391.689 43.691C388.189 43.691 386.453 44.923 386.453 46.967C386.453 49.011 388.189 50.243 391.689 50.243C393.453 50.243 394.741 49.963 395.609 49.375Z" fill="#242424"/>
<path d="M186.047 82.485L182.975 82.853C182.735 81.317 181.999 80.309 180.767 80.309C179.359 80.309 178.751 81.893 178.751 84.053C178.751 86.229 179.311 87.861 180.767 87.861C182.047 87.861 182.735 87.029 182.975 85.429L185.887 86.117C185.631 88.757 183.647 90.645 180.767 90.645C177.343 90.645 175.471 88.005 175.471 84.085C175.471 80.293 177.295 77.525 180.767 77.525C183.743 77.525 185.919 79.413 186.047 82.485ZM195.115 89.285C194.299 90.133 193.131 90.645 191.659 90.645C188.731 90.645 186.923 88.581 186.923 85.925C186.923 83.301 188.731 81.077 191.659 81.077C194.587 81.077 196.395 83.301 196.395 85.925C196.395 87.253 195.947 88.437 195.115 89.285ZM191.659 88.149C192.667 88.149 193.195 87.509 193.195 85.925C193.195 84.581 192.619 83.573 191.659 83.573C190.699 83.573 190.123 84.581 190.123 85.925C190.123 87.509 190.651 88.149 191.659 88.149ZM206.402 90.325H203.314V85.189C203.314 84.245 202.818 83.717 202.034 83.717C201.138 83.717 200.626 84.133 200.626 85.173V90.325H197.538V81.381H200.45V82.645C200.722 81.893 201.458 81.221 202.546 81.093C204.994 80.837 206.402 82.181 206.402 84.293V90.325ZM213.397 90.325H209.653L206.789 81.397H210.053L211.525 87.445L213.013 81.397H216.261L213.397 90.325ZM225.453 86.533H219.245C219.245 87.877 219.981 88.309 221.069 88.309C221.773 88.309 222.381 87.861 222.493 87.205L225.453 87.509C225.069 89.477 223.197 90.645 221.069 90.645C217.885 90.645 216.173 88.773 216.173 85.877C216.173 83.221 217.917 81.077 220.845 81.077C223.757 81.077 225.533 82.901 225.453 86.533ZM219.309 84.805H222.365C222.365 83.829 221.661 83.317 220.845 83.317C220.029 83.317 219.309 83.845 219.309 84.805ZM229.705 90.325H226.601V81.381H229.433V82.789C229.737 81.957 230.745 81.125 231.929 81.045C232.265 81.013 232.617 81.045 232.969 81.141L232.233 84.181C231.865 84.005 231.289 83.909 230.793 84.021C230.073 84.181 229.705 84.645 229.705 85.413V90.325ZM238.125 87.157H237.805C237.405 87.157 237.101 87.141 236.845 87.157C236.605 87.173 236.541 87.237 236.493 87.413C236.445 87.589 236.589 87.701 236.781 87.749C237.213 87.829 238.893 87.925 239.357 87.925C242.349 88.053 243.277 89.029 243.197 90.661C243.069 92.725 241.069 93.605 238.125 93.605C234.413 93.605 233.245 92.613 233.245 91.285C233.245 90.421 234.077 89.621 235.037 89.493C234.029 89.349 233.741 88.741 233.821 88.165C233.933 87.349 234.509 86.805 235.133 86.565C234.189 86.037 233.725 85.253 233.725 84.181C233.725 82.325 235.309 81.077 238.013 81.077C238.381 81.077 238.701 81.093 239.005 81.141C239.117 80.629 239.437 80.165 239.837 79.909C240.653 79.381 241.821 79.269 242.989 79.589L242.621 81.749C242.045 81.381 241.341 81.317 240.845 81.621C240.797 81.637 240.781 81.669 240.765 81.685C241.741 82.245 242.285 83.093 242.285 84.181C242.285 86.053 240.765 87.157 238.125 87.157ZM238.013 85.269C238.733 85.269 239.069 84.837 239.069 84.181C239.069 83.429 238.701 82.965 238.013 82.965C237.309 82.965 236.925 83.429 236.925 84.181C236.925 84.837 237.261 85.269 238.013 85.269ZM238.701 90.357C238.381 90.357 237.005 90.229 236.605 90.229C236.141 90.213 235.853 90.229 235.741 90.565C235.613 91.045 235.981 91.477 237.725 91.557C238.685 91.589 239.485 91.557 239.837 91.301C239.965 91.221 240.029 91.109 240.045 90.965C240.093 90.565 239.901 90.437 238.701 90.357ZM252.844 86.533H246.636C246.636 87.877 247.372 88.309 248.46 88.309C249.164 88.309 249.772 87.861 249.884 87.205L252.844 87.509C252.46 89.477 250.588 90.645 248.46 90.645C245.276 90.645 243.564 88.773 243.564 85.877C243.564 83.221 245.308 81.077 248.236 81.077C251.148 81.077 252.924 82.901 252.844 86.533ZM246.7 84.805H249.756C249.756 83.829 249.052 83.317 248.236 83.317C247.42 83.317 246.7 83.845 246.7 84.805ZM262.84 90.325H259.752V85.189C259.752 84.245 259.256 83.717 258.472 83.717C257.576 83.717 257.064 84.133 257.064 85.173V90.325H253.976V81.381H256.888V82.645C257.16 81.893 257.896 81.221 258.984 81.093C261.432 80.837 262.84 82.181 262.84 84.293V90.325ZM272.74 84.469L269.812 85.061C269.668 84.165 269.22 83.573 268.468 83.573C267.508 83.573 266.916 84.501 266.916 85.925C266.916 87.573 267.46 88.149 268.468 88.149C269.348 88.149 269.764 87.653 269.876 86.485L272.772 87.221C272.356 89.205 270.9 90.645 268.468 90.645C265.444 90.645 263.892 88.661 263.892 85.925C263.892 83.237 265.444 81.077 268.468 81.077C270.82 81.077 272.276 82.517 272.74 84.469ZM282.937 86.533H276.729C276.729 87.877 277.465 88.309 278.553 88.309C279.257 88.309 279.865 87.861 279.977 87.205L282.937 87.509C282.553 89.477 280.681 90.645 278.553 90.645C275.369 90.645 273.657 88.773 273.657 85.877C273.657 83.221 275.401 81.077 278.329 81.077C281.241 81.077 283.017 82.901 282.937 86.533ZM276.793 84.805H279.849C279.849 83.829 279.145 83.317 278.329 83.317C277.513 83.317 276.793 83.845 276.793 84.805ZM292.165 90.325H288.197V77.845H292.165C295.573 77.845 298.629 79.925 298.629 84.053C298.629 88.533 295.829 90.325 292.165 90.325ZM291.445 87.541H292.197C293.973 87.541 295.189 86.389 295.189 84.021C295.189 81.893 293.941 80.629 292.197 80.629H291.445V87.541ZM308.875 86.533H302.667C302.667 87.877 303.403 88.309 304.491 88.309C305.195 88.309 305.803 87.861 305.915 87.205L308.875 87.509C308.491 89.477 306.619 90.645 304.491 90.645C301.307 90.645 299.595 88.773 299.595 85.877C299.595 83.221 301.339 81.077 304.267 81.077C307.179 81.077 308.955 82.901 308.875 86.533ZM302.731 84.805H305.787C305.787 83.829 305.083 83.317 304.267 83.317C303.451 83.317 302.731 83.845 302.731 84.805ZM317.975 83.781L315.687 84.357C315.495 83.573 314.775 83.109 313.863 83.109C312.855 83.109 312.535 83.333 312.535 83.701C312.535 84.069 312.999 84.197 314.023 84.405C316.551 84.965 318.199 85.685 318.199 87.605C318.199 89.685 316.503 90.645 314.071 90.645C311.255 90.645 310.007 89.589 309.495 87.861L312.071 87.173C312.279 87.941 313.223 88.533 314.135 88.533C314.951 88.533 315.367 88.341 315.367 87.941C315.367 87.493 314.839 87.285 314.023 87.109C311.079 86.469 309.783 85.829 309.783 83.973C309.783 82.357 311.159 81.077 313.991 81.077C316.247 81.077 317.799 82.357 317.975 83.781ZM322.759 79.045C322.759 80.021 322.039 80.741 321.015 80.741C319.991 80.741 319.287 80.021 319.287 79.045C319.287 78.037 319.991 77.317 321.015 77.317C322.039 77.317 322.759 78.037 322.759 79.045ZM322.567 90.325H319.463V81.381H322.567V90.325ZM328.437 87.157H328.117C327.717 87.157 327.413 87.141 327.157 87.157C326.917 87.173 326.853 87.237 326.805 87.413C326.757 87.589 326.901 87.701 327.093 87.749C327.525 87.829 329.205 87.925 329.669 87.925C332.661 88.053 333.589 89.029 333.509 90.661C333.381 92.725 331.381 93.605 328.437 93.605C324.725 93.605 323.557 92.613 323.557 91.285C323.557 90.421 324.389 89.621 325.349 89.493C324.341 89.349 324.053 88.741 324.133 88.165C324.245 87.349 324.821 86.805 325.445 86.565C324.501 86.037 324.037 85.253 324.037 84.181C324.037 82.325 325.621 81.077 328.325 81.077C328.693 81.077 329.013 81.093 329.317 81.141C329.429 80.629 329.749 80.165 330.149 79.909C330.965 79.381 332.133 79.269 333.301 79.589L332.933 81.749C332.357 81.381 331.653 81.317 331.157 81.621C331.109 81.637 331.093 81.669 331.077 81.685C332.053 82.245 332.597 83.093 332.597 84.181C332.597 86.053 331.077 87.157 328.437 87.157ZM328.325 85.269C329.045 85.269 329.381 84.837 329.381 84.181C329.381 83.429 329.013 82.965 328.325 82.965C327.621 82.965 327.237 83.429 327.237 84.181C327.237 84.837 327.573 85.269 328.325 85.269ZM329.013 90.357C328.693 90.357 327.317 90.229 326.917 90.229C326.453 90.213 326.165 90.229 326.053 90.565C325.925 91.045 326.293 91.477 328.037 91.557C328.997 91.589 329.797 91.557 330.149 91.301C330.277 91.221 330.341 91.109 330.357 90.965C330.405 90.565 330.213 90.437 329.013 90.357ZM342.98 90.325H339.892V85.189C339.892 84.245 339.396 83.717 338.612 83.717C337.716 83.717 337.204 84.133 337.204 85.173V90.325H334.116V81.381H337.028V82.645C337.3 81.893 338.036 81.221 339.124 81.093C341.572 80.837 342.98 82.181 342.98 84.293V90.325ZM356.24 83.781L353.952 84.357C353.76 83.573 353.04 83.109 352.128 83.109C351.12 83.109 350.8 83.333 350.8 83.701C350.8 84.069 351.264 84.197 352.288 84.405C354.816 84.965 356.464 85.685 356.464 87.605C356.464 89.685 354.768 90.645 352.336 90.645C349.52 90.645 348.272 89.589 347.76 87.861L350.336 87.173C350.544 87.941 351.488 88.533 352.4 88.533C353.216 88.533 353.632 88.341 353.632 87.941C353.632 87.493 353.104 87.285 352.288 87.109C349.344 86.469 348.048 85.829 348.048 83.973C348.048 82.357 349.424 81.077 352.256 81.077C354.512 81.077 356.064 82.357 356.24 83.781ZM363.841 87.829L364.305 90.293C363.665 90.533 362.673 90.677 361.713 90.629C360.033 90.581 358.929 89.717 358.929 87.861V83.925H357.153V81.397H358.929V78.661L362.033 78.053V81.397H364.257V83.925H362.033V87.317C362.033 87.781 362.209 88.005 362.577 88.005C363.009 88.005 363.505 87.941 363.841 87.829ZM374.01 90.325H371.098V88.805C370.89 89.765 370.154 90.485 369.002 90.613C366.554 90.869 365.146 89.541 365.146 87.413V81.381H368.234V86.517C368.234 87.461 368.73 88.037 369.514 87.989C370.41 87.941 370.922 87.461 370.922 86.437V81.381H374.01V90.325ZM384.246 90.325H381.206V89.205C380.902 90.101 380.006 90.597 379.046 90.661C376.742 90.837 375.142 88.757 375.142 85.813C375.142 82.821 376.694 81.013 379.126 81.061C380.022 81.109 380.774 81.445 381.206 82.021V77.669H384.246V90.325ZM381.206 86.501V84.997C381.206 83.925 380.614 83.589 379.846 83.573C378.902 83.557 378.262 84.341 378.262 85.813C378.262 87.093 378.934 88.085 379.846 88.005C380.63 87.941 381.206 87.509 381.206 86.501ZM389.103 79.045C389.103 80.021 388.383 80.741 387.359 80.741C386.335 80.741 385.631 80.021 385.631 79.045C385.631 78.037 386.335 77.317 387.359 77.317C388.383 77.317 389.103 78.037 389.103 79.045ZM388.911 90.325H385.807V81.381H388.911V90.325ZM398.365 89.285C397.549 90.133 396.381 90.645 394.909 90.645C391.981 90.645 390.173 88.581 390.173 85.925C390.173 83.301 391.981 81.077 394.909 81.077C397.837 81.077 399.645 83.301 399.645 85.925C399.645 87.253 399.197 88.437 398.365 89.285ZM394.909 88.149C395.917 88.149 396.445 87.509 396.445 85.925C396.445 84.581 395.869 83.573 394.909 83.573C393.949 83.573 393.373 84.581 393.373 85.925C393.373 87.509 393.901 88.149 394.909 88.149Z" fill="#242424"/>
</svg>
