<svg width="572" height="129" viewBox="0 0 572 129" fill="none" xmlns="http://www.w3.org/2000/svg">
<rect x="19.5229" y="0.858887" width="536" height="108" transform="rotate(2 19.5229 0.858887)" fill="#DDFF8E"/>
<path d="M193.42 56.219H187.708V54.987H185.748V51.011H187.708V49.947H185.748V46.643H169.928V42.611H175.08V40.511H181.072V42.611H185.972V46.223H187.708V41.071H193.42V56.219ZM185.44 51.711C185.44 54.483 182.64 56.275 177.964 56.275C173.26 56.275 170.46 54.483 170.46 51.683C170.46 48.883 173.26 47.091 177.964 47.091C182.584 47.091 185.44 48.911 185.44 51.711ZM193.42 65.739H187.708V61.203H171.944V56.947H193.42V65.739ZM179.588 52.327C179.98 52.187 180.176 51.991 180.176 51.711C180.176 51.151 179.336 50.871 177.964 50.871C176.592 50.871 175.724 51.151 175.724 51.683C175.724 52.271 176.592 52.495 177.964 52.495C178.664 52.495 179.196 52.439 179.588 52.327ZM219.466 58.235H213.782V41.071H219.466V58.235ZM213.474 50.983L210.59 55.323C208.098 54.679 205.802 53.083 204.374 51.151C202.89 53.251 200.23 54.931 197.906 55.687L194.658 51.655C198.69 49.863 201.462 47.511 201.462 44.543V41.323H207.342V44.543C207.342 47.539 209.442 49.555 213.474 50.983ZM219.634 65.487H198.382V56.275H204.094V60.699H219.634V65.487ZM245.483 65.599H239.799V41.071H245.483V65.599ZM237.895 56.219L238.539 61.007C234.507 62.043 227.675 62.715 222.495 62.491V41.883H236.775V46.811H228.179V57.395C231.231 57.395 235.151 56.947 237.895 56.219ZM270.969 65.599H265.285V41.071H270.969V49.415H273.433V54.483H270.969V65.599ZM265.257 59.103L261.757 63.135C259.293 61.595 257.193 59.439 255.989 57.115C254.953 59.579 252.545 62.071 249.941 63.555L246.329 59.803C250.725 57.339 253.105 53.531 253.105 47.791V46.419H247.841V41.883H264.165V46.419H258.901V47.791C258.901 53.475 261.477 56.807 265.257 59.103ZM297.574 58.235H291.89V41.071H297.574V58.235ZM289.65 50.871C288.53 53.391 285.842 54.987 282.23 54.987C277.442 54.987 274.25 52.159 274.25 48.043C274.25 44.011 277.442 41.099 282.23 41.099C287.046 41.099 290.238 43.983 290.238 48.071C290.238 49.079 290.042 50.003 289.65 50.871ZM297.742 65.487H276.518V56.275H282.202V60.699H297.742V65.487ZM284.666 48.071C284.666 46.727 283.714 45.607 282.23 45.607C280.774 45.607 279.822 46.727 279.822 48.043C279.822 49.359 280.774 50.451 282.23 50.451C283.714 50.451 284.666 49.387 284.666 48.071ZM324.292 52.887L321.296 57.003C317.684 55.631 314.632 53.755 312.168 50.591C309.788 53.867 306.568 55.771 303.04 57.255L300.044 53.083C304.16 51.431 309.172 47.819 309.172 43.395V41.379H315.164V43.395C315.164 47.791 320.176 51.235 324.292 52.887ZM324.544 64.003H299.792V59.215H324.544V64.003ZM348.825 54.847H327.657V41.351H348.629V45.299H333.201V46.307H348.377V49.835H333.201V50.871H348.825V54.847ZM345.773 65.599H340.453V59.999H336.309C336.057 62.099 335.609 64.031 335.161 65.627L329.589 65.095C330.009 63.527 330.401 61.875 330.653 59.999H325.837V55.883H350.589V59.999H345.773V65.599ZM375.711 65.599H370.027V41.071H375.711V65.599ZM368.123 56.219L368.767 61.007C364.735 62.043 357.903 62.715 352.723 62.491V41.883H367.003V46.811H358.407V57.395C361.459 57.395 365.379 56.947 368.123 56.219ZM402.68 64.115H377.928V59.327H387.364V56.555C382.072 55.799 379.356 52.775 379.356 48.967C379.356 44.487 383.024 41.183 390.276 41.183C397.444 41.183 401.196 44.487 401.196 48.967C401.196 52.775 398.48 55.799 393.216 56.555V59.327H402.68V64.115ZM394.196 51.375C395.064 50.787 395.512 50.003 395.512 48.967C395.512 46.923 393.776 45.691 390.276 45.691C386.776 45.691 385.04 46.923 385.04 48.967C385.04 51.011 386.776 52.243 390.276 52.243C392.04 52.243 393.328 51.963 394.196 51.375Z" fill="#242424"/>
<path d="M188.957 92.325H185.693V79.845H188.957V92.325ZM199.396 92.325H196.308V87.189C196.308 86.245 195.812 85.717 195.028 85.717C194.132 85.717 193.62 86.133 193.62 87.173V92.325H190.532V83.381H193.444V84.645C193.716 83.893 194.452 83.221 195.54 83.093C197.988 82.837 199.396 84.181 199.396 86.293V92.325ZM209.552 92.325H206.464V87.189C206.464 86.245 205.968 85.717 205.184 85.717C204.288 85.717 203.776 86.133 203.776 87.173V92.325H200.688V83.381H203.6V84.645C203.872 83.893 204.608 83.221 205.696 83.093C208.144 82.837 209.552 84.181 209.552 86.293V92.325ZM218.796 91.285C217.98 92.133 216.812 92.645 215.34 92.645C212.412 92.645 210.604 90.581 210.604 87.925C210.604 85.301 212.412 83.077 215.34 83.077C218.268 83.077 220.076 85.301 220.076 87.925C220.076 89.253 219.628 90.437 218.796 91.285ZM215.34 90.149C216.348 90.149 216.876 89.509 216.876 87.925C216.876 86.581 216.3 85.573 215.34 85.573C214.38 85.573 213.804 86.581 213.804 87.925C213.804 89.509 214.332 90.149 215.34 90.149ZM226.61 92.325H222.866L220.002 83.397H223.266L224.738 89.445L226.226 83.397H229.474L226.61 92.325ZM238.714 92.325H235.658C235.546 92.053 235.402 91.637 235.402 91.141C234.906 92.021 233.978 92.453 232.89 92.581C230.826 92.821 229.61 91.941 229.418 90.405C229.226 88.869 230.346 87.717 232.154 87.189C233.178 86.885 234.458 86.661 235.402 86.645V86.629C235.402 85.717 234.97 85.509 234.122 85.509C233.226 85.509 232.794 85.877 232.682 86.437L229.738 86.037C230.042 84.421 231.514 83.109 234.378 83.109C236.618 83.109 238.49 84.197 238.49 86.485V90.805C238.49 91.333 238.586 91.829 238.714 92.325ZM235.402 88.709V88.325C234.842 88.325 234.026 88.533 233.37 88.837C232.778 89.093 232.538 89.525 232.618 89.957C232.73 90.517 233.194 90.773 234.042 90.581C234.714 90.453 235.402 89.765 235.402 88.709ZM246.1 89.829L246.564 92.293C245.924 92.533 244.932 92.677 243.972 92.629C242.292 92.581 241.188 91.717 241.188 89.861V85.925H239.412V83.397H241.188V80.661L244.292 80.053V83.397H246.516V85.925H244.292V89.317C244.292 89.781 244.468 90.005 244.836 90.005C245.268 90.005 245.764 89.941 246.1 89.829ZM250.909 81.045C250.909 82.021 250.189 82.741 249.165 82.741C248.141 82.741 247.437 82.021 247.437 81.045C247.437 80.037 248.141 79.317 249.165 79.317C250.189 79.317 250.909 80.037 250.909 81.045ZM250.717 92.325H247.613V83.381H250.717V92.325ZM258.219 92.325H254.475L251.611 83.397H254.875L256.347 89.445L257.835 83.397H261.083L258.219 92.325ZM270.275 88.533H264.067C264.067 89.877 264.803 90.309 265.891 90.309C266.595 90.309 267.203 89.861 267.315 89.205L270.275 89.509C269.891 91.477 268.019 92.645 265.891 92.645C262.707 92.645 260.995 90.773 260.995 87.877C260.995 85.221 262.739 83.077 265.667 83.077C268.579 83.077 270.355 84.901 270.275 88.533ZM264.131 86.805H267.187C267.187 85.829 266.483 85.317 265.667 85.317C264.851 85.317 264.131 85.845 264.131 86.805ZM279.503 92.325H275.535V79.845H279.503C282.911 79.845 285.967 81.925 285.967 86.053C285.967 90.533 283.167 92.325 279.503 92.325ZM278.783 89.541H279.535C281.311 89.541 282.527 88.389 282.527 86.021C282.527 83.893 281.279 82.629 279.535 82.629H278.783V89.541ZM296.212 88.533H290.004C290.004 89.877 290.74 90.309 291.828 90.309C292.532 90.309 293.14 89.861 293.252 89.205L296.212 89.509C295.828 91.477 293.956 92.645 291.828 92.645C288.644 92.645 286.932 90.773 286.932 87.877C286.932 85.221 288.676 83.077 291.604 83.077C294.516 83.077 296.292 84.901 296.212 88.533ZM290.068 86.805H293.124C293.124 85.829 292.42 85.317 291.604 85.317C290.788 85.317 290.068 85.845 290.068 86.805ZM305.312 85.781L303.024 86.357C302.832 85.573 302.112 85.109 301.2 85.109C300.192 85.109 299.872 85.333 299.872 85.701C299.872 86.069 300.336 86.197 301.36 86.405C303.888 86.965 305.536 87.685 305.536 89.605C305.536 91.685 303.84 92.645 301.408 92.645C298.592 92.645 297.344 91.589 296.832 89.861L299.408 89.173C299.616 89.941 300.56 90.533 301.472 90.533C302.288 90.533 302.704 90.341 302.704 89.941C302.704 89.493 302.176 89.285 301.36 89.109C298.416 88.469 297.12 87.829 297.12 85.973C297.12 84.357 298.496 83.077 301.328 83.077C303.584 83.077 305.136 84.357 305.312 85.781ZM310.096 81.045C310.096 82.021 309.376 82.741 308.352 82.741C307.328 82.741 306.624 82.021 306.624 81.045C306.624 80.037 307.328 79.317 308.352 79.317C309.376 79.317 310.096 80.037 310.096 81.045ZM309.904 92.325H306.8V83.381H309.904V92.325ZM315.775 89.157H315.455C315.055 89.157 314.751 89.141 314.495 89.157C314.255 89.173 314.191 89.237 314.143 89.413C314.095 89.589 314.239 89.701 314.431 89.749C314.863 89.829 316.543 89.925 317.007 89.925C319.999 90.053 320.927 91.029 320.847 92.661C320.719 94.725 318.719 95.605 315.775 95.605C312.063 95.605 310.895 94.613 310.895 93.285C310.895 92.421 311.727 91.621 312.687 91.493C311.679 91.349 311.391 90.741 311.471 90.165C311.583 89.349 312.159 88.805 312.783 88.565C311.839 88.037 311.375 87.253 311.375 86.181C311.375 84.325 312.959 83.077 315.663 83.077C316.031 83.077 316.351 83.093 316.655 83.141C316.767 82.629 317.087 82.165 317.487 81.909C318.303 81.381 319.471 81.269 320.639 81.589L320.271 83.749C319.695 83.381 318.991 83.317 318.495 83.621C318.447 83.637 318.431 83.669 318.415 83.685C319.391 84.245 319.935 85.093 319.935 86.181C319.935 88.053 318.415 89.157 315.775 89.157ZM315.663 87.269C316.383 87.269 316.719 86.837 316.719 86.181C316.719 85.429 316.351 84.965 315.663 84.965C314.959 84.965 314.575 85.429 314.575 86.181C314.575 86.837 314.911 87.269 315.663 87.269ZM316.351 92.357C316.031 92.357 314.655 92.229 314.255 92.229C313.791 92.213 313.503 92.229 313.391 92.565C313.263 93.045 313.631 93.477 315.375 93.557C316.335 93.589 317.135 93.557 317.487 93.301C317.615 93.221 317.679 93.109 317.695 92.965C317.743 92.565 317.551 92.437 316.351 92.357ZM330.318 92.325H327.23V87.189C327.23 86.245 326.734 85.717 325.95 85.717C325.054 85.717 324.542 86.133 324.542 87.173V92.325H321.454V83.381H324.366V84.645C324.638 83.893 325.374 83.221 326.462 83.093C328.91 82.837 330.318 84.181 330.318 86.293V92.325ZM343.578 85.781L341.29 86.357C341.098 85.573 340.378 85.109 339.466 85.109C338.458 85.109 338.138 85.333 338.138 85.701C338.138 86.069 338.602 86.197 339.626 86.405C342.154 86.965 343.802 87.685 343.802 89.605C343.802 91.685 342.106 92.645 339.674 92.645C336.858 92.645 335.61 91.589 335.098 89.861L337.674 89.173C337.882 89.941 338.826 90.533 339.738 90.533C340.554 90.533 340.97 90.341 340.97 89.941C340.97 89.493 340.442 89.285 339.626 89.109C336.682 88.469 335.386 87.829 335.386 85.973C335.386 84.357 336.762 83.077 339.594 83.077C341.85 83.077 343.402 84.357 343.578 85.781ZM351.178 89.829L351.642 92.293C351.002 92.533 350.01 92.677 349.05 92.629C347.37 92.581 346.266 91.717 346.266 89.861V85.925H344.49V83.397H346.266V80.661L349.37 80.053V83.397H351.594V85.925H349.37V89.317C349.37 89.781 349.546 90.005 349.914 90.005C350.346 90.005 350.842 89.941 351.178 89.829ZM361.347 92.325H358.435V90.805C358.227 91.765 357.491 92.485 356.339 92.613C353.891 92.869 352.483 91.541 352.483 89.413V83.381H355.571V88.517C355.571 89.461 356.067 90.037 356.851 89.989C357.747 89.941 358.259 89.461 358.259 88.437V83.381H361.347V92.325ZM371.583 92.325H368.543V91.205C368.239 92.101 367.343 92.597 366.383 92.661C364.079 92.837 362.479 90.757 362.479 87.813C362.479 84.821 364.031 83.013 366.463 83.061C367.359 83.109 368.111 83.445 368.543 84.021V79.669H371.583V92.325ZM368.543 88.501V86.997C368.543 85.925 367.951 85.589 367.183 85.573C366.239 85.557 365.599 86.341 365.599 87.813C365.599 89.093 366.271 90.085 367.183 90.005C367.967 89.941 368.543 89.509 368.543 88.501ZM376.44 81.045C376.44 82.021 375.72 82.741 374.696 82.741C373.672 82.741 372.968 82.021 372.968 81.045C372.968 80.037 373.672 79.317 374.696 79.317C375.72 79.317 376.44 80.037 376.44 81.045ZM376.248 92.325H373.144V83.381H376.248V92.325ZM385.703 91.285C384.887 92.133 383.719 92.645 382.247 92.645C379.319 92.645 377.511 90.581 377.511 87.925C377.511 85.301 379.319 83.077 382.247 83.077C385.175 83.077 386.983 85.301 386.983 87.925C386.983 89.253 386.535 90.437 385.703 91.285ZM382.247 90.149C383.255 90.149 383.783 89.509 383.783 87.925C383.783 86.581 383.207 85.573 382.247 85.573C381.286 85.573 380.711 86.581 380.711 87.925C380.711 89.509 381.239 90.149 382.247 90.149Z" fill="#242424"/>
<path d="M565.575 14.5991L565.575 115.174" stroke="#242424" stroke-width="12"/>
<path d="M28.9502 122.599L541.95 122.599" stroke="#242424" stroke-width="12"/>
<path d="M6 14.5991L5.99999 115.174" stroke="#242424" stroke-width="12"/>
<path d="M28.9502 7.84912L541.95 7.84909" stroke="#242424" stroke-width="12"/>
</svg>
